# xmcd
#
# Track frame offsets: 
#        150
#        25547
#        55740
#        92757
#        110950
#        139365
#        168935
#        190585
#        222445
#
# Disc length: 3399 seconds
#
# Revision: 2
# Processed by: cddbd v1.5.2PL0 Copyright (c) Steve Scherf et al.
# Submitted via: ExactAudioCopy v0.99pb5
#
DISCID=7b0d4509
DTITLE=Eddie Henderson - So What
DYEAR=2002
DGENRE=Jazz
TTITLE0=Prince Of Darkness
TTITLE1=On Green Dolphin Street
TTITLE2=Footprints
TTITLE3=Well, You Needn't
TTITLE4=So What
TTITLE5=Old Folks
TTITLE6=Someday My Prince Will Come
TTITLE7=All Blues
TTITLE8='Round Midnight
EXTD=YEAR: 2002
EXTT0=
EXTT1=
EXTT2=
EXTT3=
EXTT4=
EXTT5=
EXTT6=
EXTT7=
EXTT8=
PLAYORDER=
